<svg>
	<defs>
		<!-- <symbol id="" xmlns="http://www.w3.org/2000/svg"></symbol> -->

		<symbol id="horse" viewBox="0 0 26 32" xmlns="http://www.w3.org/2000/svg">
			<path fill-rule="evenodd" clip-rule="evenodd"
				d="M3.12105 18.8492C3.42403 18.8492 3.68453 18.7201 3.86788 18.4791C4.05123 18.2381 4.10641 17.9525 4.0256 17.6607C3.93868 17.3461 3.85909 17.0296 3.78683 16.7118C3.1191 13.7672 3.1235 10.7281 4.16305 8.02427C4.97433 5.91392 6.40157 4.02524 8.61007 2.56357C8.66305 2.52842 8.68136 2.4603 8.65304 2.40342C8.62472 2.34653 8.55953 2.32016 8.49972 2.34116C6.52047 3.03306 4.9714 4.21201 3.78927 5.6854C2.15548 7.72153 1.24532 10.3072 0.880086 12.9264C0.638875 14.6559 0.633993 16.4027 0.814168 18.0133C0.866903 18.493 1.2734 18.848 1.74508 18.8475L3.12105 18.8492Z" />
			<path fill-rule="evenodd" clip-rule="evenodd"
				d="M5.19507 23.0237C4.71265 23.0237 4.31909 23.417 4.31909 23.8994V23.9612C4.31909 24.4436 4.71265 24.8369 5.19507 24.8369H21.5859C22.0684 24.8369 22.4619 24.4436 22.4619 23.9612V23.8994C22.4619 23.417 22.0684 23.0237 21.5859 23.0237H5.19507Z" />
			<path fill-rule="evenodd" clip-rule="evenodd"
				d="M24.384 26.7136H2.39893C1.88208 26.7136 1.46069 27.1353 1.46069 27.6521V30.999C1.46069 31.5173 1.88086 31.9375 2.39893 31.9375H24.384C24.9023 31.9375 25.3225 31.5173 25.3225 30.999V27.6521C25.3225 27.1353 24.9009 26.7136 24.384 26.7136Z" />
			<path fill-rule="evenodd" clip-rule="evenodd"
				d="M5.90859 8.69208C5.01308 11.0212 5.0204 13.6887 5.61317 16.3019C5.89931 17.5634 6.32533 18.8171 6.85561 20.0187C6.87221 20.0561 6.88588 20.0942 6.89735 20.1323L7.04775 20.5361C7.18739 20.9101 7.52773 21.1464 7.92714 21.1464H18.9142C19.4311 21.1464 19.8527 20.7248 19.8527 20.208V19.4565C19.8527 19.1943 19.745 18.9575 19.5719 18.7871L15.4101 14.6252C15.1539 14.3693 15.1083 13.9731 15.3087 13.673C15.4691 13.4328 15.8649 13.2377 16.1557 13.2758C16.309 13.2961 16.4601 13.3708 16.5863 13.497L17.6703 14.5812C19.0775 15.9882 21.3947 15.9882 22.8017 14.5812C23.9772 13.4057 24.2567 11.7006 23.4528 10.2343C22.9345 9.28925 22.2465 8.0893 21.5167 6.92255C20.9828 6.06903 20.4171 5.22089 19.8639 4.48407L18.3798 0.625183C18.338 0.47406 18.2577 0.331238 18.1388 0.212341C17.7724 -0.154114 17.1784 -0.154114 16.8119 0.212341L15.3747 1.64935C15.2457 1.83881 15.0477 1.98139 14.8068 2.03558C13.6017 2.30878 12.5238 2.66327 11.5636 3.0871C8.56874 4.40888 6.78944 6.40082 5.90859 8.69208ZM16.839 6.68866H16.8707C17.3891 6.68866 17.8092 7.10883 17.8092 7.62714C17.8092 8.14545 17.3891 8.56562 16.8707 8.56562H16.839C16.3207 8.56562 15.9005 8.14545 15.9005 7.62714C15.9005 7.10883 16.3207 6.68866 16.839 6.68866Z" />
		</symbol>

		<symbol id="cup" viewBox="0 0 32 32" xmlns="http://www.w3.org/2000/svg">
			<path fill-rule="evenodd" clip-rule="evenodd"
				d="M11.9644 26.3749H20.0352C20.4143 26.3749 20.7385 26.164 20.8924 25.8175C21.0459 25.4709 20.9846 25.089 20.7302 24.808C20.3826 24.4245 20.0967 23.9838 19.8882 23.5029C19.7034 23.0761 19.2439 22.8515 18.7937 22.9677C17.9214 23.1928 17.0098 23.3124 16.073 23.3124H15.9265C14.9898 23.3124 14.0784 23.1928 13.2058 22.9677C12.7556 22.8515 12.2962 23.0761 12.1113 23.5029C11.9031 23.9841 11.617 24.4245 11.2695 24.8083C11.0149 25.0893 10.9536 25.4711 11.1074 25.8175C11.261 26.164 11.5852 26.3749 11.9644 26.3749Z" />
			<path fill-rule="evenodd" clip-rule="evenodd"
				d="M24.25 28.25H7.75C7.23364 28.25 6.8125 28.6711 6.8125 29.1875V31.0625C6.8125 31.5803 7.23218 32 7.75 32H24.25C24.7678 32 25.1875 31.5803 25.1875 31.0625V29.1875C25.1875 28.6711 24.7664 28.25 24.25 28.25Z" />
			<path fill-rule="evenodd" clip-rule="evenodd"
				d="M4.6875 11.7463V2.875C4.6875 2.35864 4.26636 1.9375 3.75 1.9375H0.9375C0.419678 1.9375 0 2.35718 0 2.875V7.4375C0 9.43457 0.813965 11.2473 2.1272 12.5603C2.4751 12.9082 2.85815 13.2212 3.27026 13.4932C3.57642 13.6951 3.94604 13.7046 4.26196 13.5186C4.57788 13.3328 4.74927 13.0049 4.72144 12.6396C4.69897 12.3445 4.6875 12.0464 4.6875 11.7463Z" />
			<path fill-rule="evenodd" clip-rule="evenodd"
				d="M31.0628 1.9375H28.2503C27.7339 1.9375 27.3127 2.35864 27.3127 2.875V11.7463C27.3127 12.0464 27.3013 12.3445 27.2788 12.6396C27.251 13.0051 27.4224 13.333 27.7383 13.5188C28.0542 13.7046 28.4238 13.6951 28.73 13.4932C29.1421 13.2212 29.5252 12.9084 29.8731 12.5603C31.1863 11.2473 32.0003 9.43482 32.0003 7.4375V2.875C32.0003 2.35718 31.5806 1.9375 31.0628 1.9375Z" />
			<path fill-rule="evenodd" clip-rule="evenodd"
				d="M16.8284 8.39233L16.0002 7.21924L15.1719 8.39233C15.0444 8.573 14.8572 8.70264 14.6433 8.75854L13.304 9.10889L14.137 10.0947C14.2893 10.2751 14.3682 10.5063 14.3574 10.7424L14.2974 12.063L15.6904 11.5754C15.8899 11.5056 16.1104 11.5056 16.3101 11.5754L17.7029 12.063L17.6428 10.7424C17.6321 10.5063 17.7109 10.2751 17.8633 10.0947L18.6965 9.10889L17.3569 8.75854C17.1433 8.70264 16.9561 8.573 16.8284 8.39233Z" />
			<path fill-rule="evenodd" clip-rule="evenodd"
				d="M24.5 0H7.5C6.98218 0 6.5625 0.419678 6.5625 0.9375V11.7463C6.5625 14.4065 7.60986 16.8245 9.29907 18.5793C10.9976 20.3438 13.3425 21.4375 15.9268 21.4375H16.0732C18.6575 21.4375 21.0024 20.3438 22.7009 18.5793C24.3901 16.8247 25.4375 14.4065 25.4375 11.7463V0.9375C25.4375 0.419678 25.0178 0 24.5 0V0ZM21.0884 9.18286L19.5325 11.0242L19.6387 13.3638C19.6528 13.6748 19.5117 13.9727 19.2617 14.1584C19.0142 14.3425 18.6836 14.3931 18.3923 14.291L16 13.4534L13.6077 14.291C13.314 14.3938 12.988 14.3442 12.7383 14.1584C12.4883 13.9724 12.3472 13.6748 12.3613 13.3638L12.4675 11.0239L10.9116 9.18286C10.7039 8.93701 10.6367 8.60156 10.7339 8.29468C10.8311 7.98779 11.0791 7.7522 11.3906 7.6709L13.8376 7.03101L15.2341 5.05298C15.4099 4.8042 15.6953 4.65625 16 4.65625C16.3044 4.65625 16.5901 4.8042 16.7659 5.05298L18.1624 7.03101L20.6094 7.6709C20.9209 7.7522 21.1687 7.98779 21.2659 8.29468C21.3633 8.60181 21.2961 8.93701 21.0884 9.18286Z" />
		</symbol>

		<symbol id="rating" viewBox="0 0 32 30" xmlns="http://www.w3.org/2000/svg">
			<path fill-rule="evenodd" clip-rule="evenodd"
				d="M7.07749 22.0002H0.922513C0.413184 22.0002 0 22.5483 0 23.2246V28.7756C0 29.4519 0.413184 30.0002 0.922513 30.0002H7.07749C7.58561 30.0002 8 29.45 8 28.7756V23.2246C8 22.5502 7.58561 22.0002 7.07749 22.0002Z" />
			<path fill-rule="evenodd" clip-rule="evenodd"
				d="M17.0768 14.0002H10.9232C10.4134 14.0002 10 14.563 10 15.2569V28.7435C10 29.4375 10.4134 30.0002 10.9232 30.0002H17.0768C17.5854 30.0002 18 29.4356 18 28.7435V15.2569C18 14.5649 17.5852 14.0002 17.0768 14.0002V14.0002Z" />
			<path fill-rule="evenodd" clip-rule="evenodd"
				d="M31.0623 2.00024H20.9377C20.4197 2.00024 20 2.57195 20 3.27669V28.7235C20 29.4285 20.4197 30.0002 20.9377 30.0002H31.0623C31.58 30.0002 32 29.4285 32 28.7235V3.27669C32 2.57162 31.58 2.00024 31.0623 2.00024V2.00024Z" />
		</symbol>

		<symbol id="community" viewBox="0 0 32 32" xmlns="http://www.w3.org/2000/svg">
			<path
				d="M12.0889 12.2205C13.292 12.8391 14.647 13.166 16.0076 13.166C17.3682 13.166 18.7232 12.8391 19.926 12.2205C20.238 12.0601 20.4343 11.7388 20.4348 11.3882L20.4378 9.34204C20.4385 8.7644 20.2109 8.21777 19.7969 7.80322C19.3821 7.3877 18.8098 7.14966 18.2271 7.14966C16.7407 7.14966 15.2546 7.14771 13.7686 7.14771C13.1834 7.14771 12.6328 7.37646 12.2183 7.7915C11.8042 8.20605 11.5764 8.7561 11.5774 9.34033L11.5801 11.3882C11.5806 11.7388 11.7771 12.0601 12.0889 12.2205Z" />
			<path
				d="M16.0063 6.47168C17.7905 6.47168 19.2422 5.02002 19.2422 3.23584C19.2422 1.45166 17.7905 0 16.0063 0C14.2222 0 12.7705 1.45166 12.7705 3.23584C12.7705 5.02002 14.2222 6.47168 16.0063 6.47168Z" />
			<path
				d="M6.64966 25.9832C5.16333 25.9832 3.67725 25.9814 2.19117 25.9814C1.60596 25.9814 1.05542 26.21 0.640872 26.6252C0.22681 27.0398 -0.000973435 27.5898 3.12708e-06 28.1738L0.00293281 30.2217C0.0034211 30.5725 0.19971 30.8936 0.511722 31.054C1.7146 31.6728 3.06958 31.9998 4.43018 31.9998C5.79077 31.9998 7.146 31.6728 8.34888 31.054C8.66065 30.8936 8.85718 30.5725 8.85767 30.2217L8.86035 28.1758C8.86109 27.5979 8.63355 27.0513 8.21973 26.6367C7.80493 26.2214 7.23267 25.9832 6.64966 25.9832Z" />
			<path
				d="M4.4292 25.3054C6.21362 25.3054 7.66504 23.854 7.66504 22.0696C7.66504 20.2854 6.21338 18.834 4.4292 18.834C2.64502 18.834 1.1936 20.2854 1.1936 22.0696C1.1936 23.854 2.64502 25.3054 4.4292 25.3054Z" />
			<path
				d="M31.3594 26.6367C30.9446 26.2214 30.3723 25.9832 29.7896 25.9832C28.3032 25.9832 26.8171 25.9814 25.3311 25.9814C24.7459 25.9814 24.1953 26.21 23.7808 26.6252C23.3667 27.0398 23.1389 27.5896 23.1399 28.1738L23.1426 30.2217C23.1431 30.5725 23.3394 30.8936 23.6514 31.054C24.8545 31.6726 26.2095 31.9998 27.5701 31.9998C28.9307 31.9998 30.2857 31.6726 31.4885 31.054C31.8006 30.8936 31.9968 30.5723 31.9973 30.2217L32.0003 28.1755C32.001 27.5979 31.7735 27.0513 31.3594 26.6367Z" />
			<path
				d="M27.5688 25.3054C29.3533 25.3054 30.8047 23.854 30.8047 22.0696C30.8047 20.2854 29.353 18.834 27.5688 18.834C25.7847 18.834 24.333 20.2854 24.333 22.0696C24.333 23.854 25.7847 25.3054 27.5688 25.3054Z" />
			<path
				d="M20.3708 21.9312L16.9446 19.9531V16C16.9446 15.4822 16.5249 15.0625 16.0071 15.0625C15.4892 15.0625 15.0696 15.4822 15.0696 16V19.9543L11.6416 21.9336C11.1931 22.1924 11.0395 22.7659 11.2983 23.2141C11.4719 23.5149 11.7871 23.6831 12.1111 23.6831C12.2702 23.6831 12.4314 23.6426 12.5791 23.5574L16.0083 21.5774L19.4333 23.5552C19.581 23.6404 19.7422 23.6809 19.9013 23.6809C20.2253 23.6809 20.5403 23.5127 20.7141 23.2119C20.9729 22.7634 20.8193 22.1902 20.3708 21.9312Z" />
		</symbol>

		<symbol id="target" viewBox="0 0 32 32" xmlns="http://www.w3.org/2000/svg">
			<path fill-rule="evenodd" clip-rule="evenodd"
				d="M23.6262 12.3342C24.7 14.1077 25.3179 16.1877 25.3179 18.4121C25.3179 21.6575 24.0024 24.5957 21.8757 26.7224C19.749 28.8491 16.8108 30.1645 13.5654 30.1645C10.3201 30.1645 7.38184 28.8491 5.25513 26.7224C3.12842 24.5957 1.81299 21.6575 1.81299 18.4121C1.81299 15.1667 3.12842 12.2285 5.25513 10.1018C7.38184 7.9751 10.3201 6.65967 13.5654 6.65967C15.7983 6.65967 17.8857 7.28223 19.6633 8.36328L21.0273 7.00684C18.8835 5.60156 16.3198 4.78418 13.5654 4.78418C9.80225 4.78418 6.39527 6.30957 3.9292 8.77588C1.46289 11.2419 -0.0625 14.6489 -0.0625 18.4121C-0.0625 22.1753 1.46289 25.5823 3.9292 28.0483C6.39527 30.5146 9.80225 32.04 13.5654 32.04C17.3286 32.04 20.7356 30.5146 23.2017 28.0483C25.668 25.5823 27.1934 22.1753 27.1934 18.4121C27.1934 15.6697 26.3831 13.1167 24.9893 10.979L23.6262 12.3342Z" />
			<path fill-rule="evenodd" clip-rule="evenodd"
				d="M18.3081 9.71021C16.8992 8.94043 15.283 8.50293 13.5645 8.50293C10.8281 8.50293 8.35108 9.61206 6.55786 11.4053C4.76465 13.1985 3.65527 15.6758 3.65527 18.4119C3.65527 21.1482 4.76465 23.6252 6.55786 25.4185C8.35108 27.2117 10.8281 28.3211 13.5645 28.3211C16.3005 28.3211 18.7778 27.2117 20.571 25.4185C22.3643 23.6252 23.4734 21.1482 23.4734 18.4119C23.4734 16.698 23.0383 15.0857 22.2725 13.6797L20.8728 15.0715C21.3384 16.0889 21.5981 17.22 21.5981 18.4119C21.5981 20.6304 20.699 22.6389 19.2451 24.0925C17.7915 25.5464 15.783 26.4456 13.5645 26.4456C11.3459 26.4456 9.3374 25.5464 7.88379 24.0925C6.42993 22.6389 5.53076 20.6304 5.53076 18.4119C5.53076 16.1934 6.42993 14.1848 7.88379 12.7312C9.3374 11.2773 11.3459 10.3782 13.5645 10.3782C14.7568 10.3782 15.8887 10.6382 16.9063 11.1042L18.3081 9.71021Z" />
			<path fill-rule="evenodd" clip-rule="evenodd"
				d="M13.5657 14.0989C13.6721 14.0984 13.7788 14.1021 13.885 14.1099L15.4793 12.5244C14.8765 12.3286 14.2334 12.2227 13.5657 12.2227C11.8567 12.2227 10.3096 12.9155 9.18945 14.0356C8.06958 15.1555 7.37671 16.7026 7.37671 18.4116C7.37671 20.1204 8.06958 21.6677 9.1897 22.7876C10.3096 23.9077 11.8569 24.6003 13.5657 24.6003C15.2747 24.6003 16.8218 23.9077 17.9419 22.7876C19.0618 21.6677 19.7544 20.1206 19.7544 18.4116C19.7544 17.74 19.6475 17.0933 19.4495 16.4878L17.8652 18.0635C17.8743 18.1785 17.8792 18.2944 17.8792 18.4116C17.8792 19.6028 17.3962 20.6812 16.6157 21.4617C15.8352 22.2422 14.7568 22.7251 13.5657 22.7251C12.3743 22.7251 11.2959 22.2422 10.5154 21.4617C9.73511 20.6812 9.2522 19.6028 9.2522 18.4116C9.2522 17.2205 9.73511 16.1421 10.5156 15.3616C11.3118 14.5652 12.4392 14.1038 13.5657 14.0989V14.0989Z" />
			<path fill-rule="evenodd" clip-rule="evenodd"
				d="M31.663 3.89652C31.5017 3.73514 31.2961 3.64481 31.0852 3.62577L28.873 3.26371L28.3769 0.839878C28.3456 0.656528 28.2595 0.480503 28.1184 0.338657C27.7541 -0.0275541 27.1621 -0.0290188 26.7961 0.334995L24.0295 3.08841C23.8342 3.28275 23.7426 3.54203 23.7551 3.79715L23.7687 6.91776L12.8234 17.803C12.4575 18.1673 12.4558 18.7591 12.8198 19.1253C13.184 19.4915 13.7761 19.4932 14.142 19.1289L25.0908 8.24027L28.1679 8.24369C28.4345 8.26713 28.7092 8.17679 28.9133 7.97294L31.663 5.22245C32.0292 4.85624 32.0292 4.26273 31.663 3.89652V3.89652Z" />
		</symbol>

		<symbol id="megaphone" viewBox="0 0 32 26" xmlns="http://www.w3.org/2000/svg">
			<path fill-rule="evenodd" clip-rule="evenodd"
				d="M1.04565 9.66797C0.400391 10.3132 0 11.2039 0 12.1846C0 13.1653 0.400391 14.0562 1.04565 14.7014C1.69092 15.3467 2.58179 15.7471 3.5625 15.7471H3.6875V8.62207H3.5625C2.58179 8.62207 1.69092 9.02271 1.04565 9.66797Z" />
			<path fill-rule="evenodd" clip-rule="evenodd"
				d="M13.5 6.87207H6.5C5.98218 6.87207 5.5625 7.29199 5.5625 7.80957V16.5596C5.5625 17.0774 5.98218 17.4971 6.5 17.4971H13.5V6.87207Z" />
			<path fill-rule="evenodd" clip-rule="evenodd"
				d="M31.9976 1.37254C31.9978 1.16673 31.9302 0.959454 31.7913 0.786603C31.4678 0.384259 30.8789 0.320294 30.4766 0.643781C29.1028 1.75438 27.7539 2.7639 26.4126 3.62156C25.0815 4.47264 23.7446 5.18455 22.3801 5.71165C21.0928 6.20872 19.7722 6.52244 18.4414 6.70091C17.4216 6.83738 16.396 6.89476 15.375 6.89378V17.4741C16.4016 17.4692 17.4304 17.5188 18.4504 17.6482C19.7756 17.8166 21.0928 18.1211 22.3801 18.6181C23.7446 19.1452 25.0813 19.8572 26.4126 20.7082C27.7368 21.5547 29.0681 22.5493 30.4236 23.643C30.5908 23.7991 30.8157 23.8945 31.0625 23.8945C31.5803 23.8945 32 23.4748 32 22.957V1.37254H31.9976Z" />
			<path fill-rule="evenodd" clip-rule="evenodd"
				d="M14.096 19.3721H7.36914L8.45703 23.4319C8.65747 24.1797 9.14404 24.7769 9.76709 25.1367C10.3916 25.4973 11.1523 25.6206 11.8997 25.4204L12.7446 25.1938C13.4927 24.9934 14.0898 24.5068 14.4497 23.8838L14.448 23.8828L14.4497 23.8801C14.8098 23.2563 14.9331 22.4968 14.7334 21.7512L14.096 19.3721Z" />
		</symbol>


		<symbol id="notify" viewBox="0 0 12 16" xmlns="http://www.w3.org/2000/svg">
			<path
				d="M6 15.5C6.825 15.5 7.5 14.825 7.5 14H4.5C4.5 14.825 5.1675 15.5 6 15.5ZM10.5 11V7.25C10.5 4.9475 9.27 3.02 7.125 2.51V2C7.125 1.3775 6.6225 0.875 6 0.875C5.3775 0.875 4.875 1.3775 4.875 2V2.51C2.7225 3.02 1.5 4.94 1.5 7.25V11L0 12.5V13.25H12V12.5L10.5 11Z"
				fill="#2B353F" />
		</symbol>
		<symbol id="mess" viewBox="0 0 16 12" xmlns="http://www.w3.org/2000/svg">
			<path
				d="M14 0H2C1.175 0 0.5075 0.675 0.5075 1.5L0.5 10.5C0.5 11.325 1.175 12 2 12H14C14.825 12 15.5 11.325 15.5 10.5V1.5C15.5 0.675 14.825 0 14 0ZM14 3L8 6.75L2 3V1.5L8 5.25L14 1.5V3Z"
				fill="#F5F5F5" />
		</symbol>
		<symbol id="dropDownArrow" viewBox="0 0 12 8" xmlns="http://www.w3.org/2000/svg">
			<path d="M1.41 0.590088L6 5.17009L10.59 0.590088L12 2.00009L6 8.00009L0 2.00009L1.41 0.590088Z"
				fill="#2B353F" />
		</symbol>

		<symbol id="plusProfile" viewBox="0 0 24 24" xmlns="http://www.w3.org/2000/svg">
			<path
				d="M12 22C17.5228 22 22 17.5228 22 12C22 6.47715 17.5228 2 12 2C6.47715 2 2 6.47715 2 12C2 17.5228 6.47715 22 12 22Z"
				stroke-linecap="round" stroke-linejoin="round" />
			<path d="M12 8V16" stroke-linecap="round" stroke-linejoin="round" />
			<path d="M8 12H16" stroke-linecap="round" stroke-linejoin="round" />
		</symbol>
		<symbol id="mailProfile" width="24" height="24" viewBox="0 0 24 24" xmlns="http://www.w3.org/2000/svg">
			<path d="M4 4H20C21.1 4 22 4.9 22 6V18C22 19.1 21.1 20 20 20H4C2.9 20 2 19.1 2 18V6C2 4.9 2.9 4 4 4Z"
				stroke-linecap="round" stroke-linejoin="round" />
			<path d="M22 6L12 13L2 6" stroke-linecap="round" stroke-linejoin="round" />
		</symbol>

		<symbol id="adminSortArrow" width="16" height="9" viewBox="0 0 16 9" xmlns="http://www.w3.org/2000/svg">
			<path d="M0 8.19995L8 0.199951L16 8.19995H0Z" fill="#40464D" />
		</symbol>

		<symbol id="iconSearch" width="18" height="18" viewBox="0 0 18 18" xmlns="http://www.w3.org/2000/svg">
			<path
				d="M12.5 11H11.71L11.43 10.73C12.41 9.59 13 8.11 13 6.5C13 2.91 10.09 0 6.5 0C2.91 0 0 2.91 0 6.5C0 10.09 2.91 13 6.5 13C8.11 13 9.59 12.41 10.73 11.43L11 11.71V12.5L16 17.49L17.49 16L12.5 11ZM6.5 11C4.01 11 2 8.99 2 6.5C2 4.01 4.01 2 6.5 2C8.99 2 11 4.01 11 6.5C11 8.99 8.99 11 6.5 11Z"
				fill="#20252B" />
		</symbol>
	</defs>
</svg>