<svg width="26" height="32" viewBox="0 0 26 32" fill="none" xmlns="http://www.w3.org/2000/svg">
<path fill-rule="evenodd" clip-rule="evenodd" d="M3.12105 18.8492C3.42403 18.8492 3.68453 18.7201 3.86788 18.4791C4.05123 18.2381 4.10641 17.9525 4.0256 17.6607C3.93868 17.3461 3.85909 17.0296 3.78683 16.7118C3.1191 13.7672 3.1235 10.7281 4.16305 8.02427C4.97433 5.91392 6.40157 4.02524 8.61007 2.56357C8.66305 2.52842 8.68136 2.4603 8.65304 2.40342C8.62472 2.34653 8.55953 2.32016 8.49972 2.34116C6.52047 3.03306 4.9714 4.21201 3.78927 5.6854C2.15548 7.72153 1.24532 10.3072 0.880086 12.9264C0.638875 14.6559 0.633993 16.4027 0.814168 18.0133C0.866903 18.493 1.2734 18.848 1.74508 18.8475L3.12105 18.8492Z" fill="#9FB1CC"/>
<path fill-rule="evenodd" clip-rule="evenodd" d="M5.19507 23.0237C4.71265 23.0237 4.31909 23.417 4.31909 23.8994V23.9612C4.31909 24.4436 4.71265 24.8369 5.19507 24.8369H21.5859C22.0684 24.8369 22.4619 24.4436 22.4619 23.9612V23.8994C22.4619 23.417 22.0684 23.0237 21.5859 23.0237H5.19507Z" fill="#9FB1CC"/>
<path fill-rule="evenodd" clip-rule="evenodd" d="M24.384 26.7136H2.39893C1.88208 26.7136 1.46069 27.1353 1.46069 27.6521V30.999C1.46069 31.5173 1.88086 31.9375 2.39893 31.9375H24.384C24.9023 31.9375 25.3225 31.5173 25.3225 30.999V27.6521C25.3225 27.1353 24.9009 26.7136 24.384 26.7136Z" fill="#9FB1CC"/>
<path fill-rule="evenodd" clip-rule="evenodd" d="M5.90859 8.69208C5.01308 11.0212 5.0204 13.6887 5.61317 16.3019C5.89931 17.5634 6.32533 18.8171 6.85561 20.0187C6.87221 20.0561 6.88588 20.0942 6.89735 20.1323L7.04775 20.5361C7.18739 20.9101 7.52773 21.1464 7.92714 21.1464H18.9142C19.4311 21.1464 19.8527 20.7248 19.8527 20.208V19.4565C19.8527 19.1943 19.745 18.9575 19.5719 18.7871L15.4101 14.6252C15.1539 14.3693 15.1083 13.9731 15.3087 13.673C15.4691 13.4328 15.8649 13.2377 16.1557 13.2758C16.309 13.2961 16.4601 13.3708 16.5863 13.497L17.6703 14.5812C19.0775 15.9882 21.3947 15.9882 22.8017 14.5812C23.9772 13.4057 24.2567 11.7006 23.4528 10.2343C22.9345 9.28925 22.2465 8.0893 21.5167 6.92255C20.9828 6.06903 20.4171 5.22089 19.8639 4.48407L18.3798 0.625183C18.338 0.47406 18.2577 0.331238 18.1388 0.212341C17.7724 -0.154114 17.1784 -0.154114 16.8119 0.212341L15.3747 1.64935C15.2457 1.83881 15.0477 1.98139 14.8068 2.03558C13.6017 2.30878 12.5238 2.66327 11.5636 3.0871C8.56874 4.40888 6.78944 6.40082 5.90859 8.69208ZM16.839 6.68866H16.8707C17.3891 6.68866 17.8092 7.10883 17.8092 7.62714C17.8092 8.14545 17.3891 8.56562 16.8707 8.56562H16.839C16.3207 8.56562 15.9005 8.14545 15.9005 7.62714C15.9005 7.10883 16.3207 6.68866 16.839 6.68866Z" fill="#9FB1CC"/>
</svg>
