<svg><defs><symbol id="horse" viewBox="0 0 26 32" xmlns="http://www.w3.org/2000/svg"><path fill-rule="evenodd" clip-rule="evenodd" d="M3.121 18.85c.303 0 .564-.13.747-.37a.911.911 0 0 0 .158-.82 21.282 21.282 0 0 1-.24-.948c-.667-2.945-.663-5.984.377-8.688.811-2.11 2.239-3.999 4.447-5.46a.125.125 0 0 0 .043-.16.124.124 0 0 0-.153-.063 10.325 10.325 0 0 0-4.71 3.344C2.154 7.722 1.244 10.307.88 12.926a20.622 20.622 0 0 0-.066 5.087c.053.48.46.835.931.834l1.376.002Zm2.074 4.174a.878.878 0 0 0-.876.875v.062c0 .483.394.876.876.876h16.39a.877.877 0 0 0 .877-.876V23.9a.877.877 0 0 0-.876-.875H5.196Zm19.189 3.69H2.399a.94.94 0 0 0-.938.938V31c0 .518.42.939.938.939h21.985a.94.94 0 0 0 .939-.939v-3.347a.94.94 0 0 0-.939-.938Z"/><path fill-rule="evenodd" clip-rule="evenodd" d="M5.909 8.692c-.896 2.33-.889 4.997-.296 7.61a20.48 20.48 0 0 0 1.243 3.717c.016.037.03.075.041.113l.15.404c.14.374.48.61.88.61h10.987a.94.94 0 0 0 .939-.938v-.752a.936.936 0 0 0-.281-.669l-4.162-4.162a.752.752 0 0 1-.101-.952c.16-.24.556-.435.847-.397a.75.75 0 0 1 .43.221l1.084 1.084a3.647 3.647 0 0 0 5.132 0c1.175-1.175 1.455-2.88.65-4.347a69.165 69.165 0 0 0-1.935-3.311 35.512 35.512 0 0 0-1.653-2.439L18.38.625a.938.938 0 0 0-1.568-.413L15.375 1.65a.932.932 0 0 1-.568.387 17.719 17.719 0 0 0-3.243 1.051C8.569 4.41 6.789 6.401 5.909 8.692Zm10.93-2.003h.032a.938.938 0 1 1 0 1.877h-.032a.939.939 0 0 1 0-1.877Z"/></symbol><symbol id="cup" viewBox="0 0 32 32" xmlns="http://www.w3.org/2000/svg"><path fill-rule="evenodd" clip-rule="evenodd" d="M11.964 26.375h8.071a.92.92 0 0 0 .857-.558.92.92 0 0 0-.162-1.009 4.77 4.77 0 0 1-.842-1.305.932.932 0 0 0-1.094-.535c-.873.225-1.784.344-2.721.344h-.146c-.937 0-1.849-.12-2.721-.344a.932.932 0 0 0-1.095.535 4.767 4.767 0 0 1-.841 1.305.92.92 0 0 0-.163 1.01.92.92 0 0 0 .857.557ZM24.25 28.25H7.75a.94.94 0 0 0-.938.938v1.875c0 .517.42.937.938.937h16.5c.518 0 .938-.42.938-.938v-1.875a.94.94 0 0 0-.938-.937ZM4.688 11.746V2.875a.94.94 0 0 0-.938-.938H.937A.937.937 0 0 0 0 2.875v4.563c0 1.997.814 3.81 2.127 5.122.348.348.731.661 1.143.933a.918.918 0 0 0 .992.026.918.918 0 0 0 .46-.88 11.768 11.768 0 0 1-.035-.893Zm26.375-9.808H28.25a.94.94 0 0 0-.937.937v8.871c0 .3-.012.598-.034.894a.919.919 0 0 0 .46.879.919.919 0 0 0 .991-.026 7.308 7.308 0 0 0 1.143-.933A7.227 7.227 0 0 0 32 7.437V2.875a.937.937 0 0 0-.937-.938ZM16.828 8.392 16 7.22l-.828 1.173a.937.937 0 0 1-.529.367l-1.339.35.833.986c.152.18.231.411.22.647l-.06 1.321 1.393-.488c.2-.07.42-.07.62 0l1.393.488-.06-1.32a.938.938 0 0 1 .22-.648l.834-.986-1.34-.35a.938.938 0 0 1-.529-.367Z"/><path fill-rule="evenodd" clip-rule="evenodd" d="M24.5 0h-17a.937.937 0 0 0-.938.938v10.808A9.834 9.834 0 0 0 9.3 18.58c1.699 1.765 4.043 2.858 6.628 2.858h.146c2.584 0 4.93-1.093 6.628-2.858a9.834 9.834 0 0 0 2.736-6.833V.937A.937.937 0 0 0 24.5 0Zm-3.412 9.183-1.556 1.841.107 2.34a.937.937 0 0 1-1.247.927L16 13.453l-2.392.838a.938.938 0 0 1-1.247-.927l.106-2.34-1.555-1.841a.938.938 0 0 1 .479-1.512l2.447-.64 1.396-1.978a.938.938 0 0 1 1.532 0l1.396 1.978 2.447.64a.937.937 0 0 1 .48 1.512Z"/></symbol><symbol id="rating" viewBox="0 0 32 30" xmlns="http://www.w3.org/2000/svg"><path fill-rule="evenodd" clip-rule="evenodd" d="M7.077 22H.923C.413 22 0 22.548 0 23.225v5.55C0 29.453.413 30 .923 30h6.154c.509 0 .923-.55.923-1.224v-5.551C8 22.55 7.586 22 7.077 22Zm10-8h-6.154c-.51 0-.923.563-.923 1.257v13.487c0 .694.413 1.256.923 1.256h6.154c.508 0 .923-.564.923-1.256V15.257c0-.692-.415-1.257-.923-1.257ZM31.062 2H20.938C20.42 2 20 2.572 20 3.277v25.447c0 .704.42 1.276.938 1.276h10.124c.518 0 .938-.572.938-1.276V3.277C32 2.572 31.58 2 31.062 2Z"/></symbol><symbol id="community" viewBox="0 0 32 32" xmlns="http://www.w3.org/2000/svg"><path d="M12.089 12.22a8.604 8.604 0 0 0 7.837 0 .938.938 0 0 0 .509-.832l.003-2.046c0-.578-.227-1.124-.641-1.539a2.235 2.235 0 0 0-1.57-.653l-4.458-.002a2.17 2.17 0 0 0-1.55.644 2.173 2.173 0 0 0-.642 1.548l.003 2.048c0 .35.197.672.509.832Zm3.917-5.748a3.24 3.24 0 0 0 3.236-3.236A3.24 3.24 0 0 0 16.006 0a3.24 3.24 0 0 0-3.236 3.236 3.24 3.24 0 0 0 3.236 3.236ZM6.65 25.983l-4.459-.002c-.585 0-1.136.229-1.55.644A2.173 2.173 0 0 0 0 28.174l.003 2.048c0 .35.197.672.509.832A8.602 8.602 0 0 0 4.43 32c1.36 0 2.716-.327 3.919-.946a.938.938 0 0 0 .509-.832l.002-2.046a2.163 2.163 0 0 0-.64-1.54 2.236 2.236 0 0 0-1.57-.653Zm-2.22-.678a3.24 3.24 0 0 0 3.235-3.235 3.24 3.24 0 0 0-3.236-3.236 3.24 3.24 0 0 0-3.235 3.236 3.24 3.24 0 0 0 3.235 3.235Zm26.93 1.332a2.236 2.236 0 0 0-1.57-.654l-4.459-.002c-.585 0-1.136.229-1.55.644a2.172 2.172 0 0 0-.641 1.549l.003 2.048c0 .35.196.672.508.832a8.606 8.606 0 0 0 3.92.946c1.36 0 2.715-.327 3.917-.946a.937.937 0 0 0 .51-.832L32 28.175a2.163 2.163 0 0 0-.64-1.538Zm-3.791-1.332a3.24 3.24 0 0 0 3.236-3.235 3.24 3.24 0 0 0-3.236-3.236 3.24 3.24 0 0 0-3.236 3.236 3.24 3.24 0 0 0 3.236 3.235Zm-7.199-3.374-3.425-1.978V16a.937.937 0 1 0-1.875 0v3.954l-3.428 1.98a.937.937 0 1 0 .937 1.623l3.43-1.98 3.424 1.978a.934.934 0 0 0 1.281-.343.938.938 0 0 0-.343-1.28Z"/></symbol><symbol id="target" viewBox="0 0 32 32" xmlns="http://www.w3.org/2000/svg"><path fill-rule="evenodd" clip-rule="evenodd" d="M23.626 12.334a11.697 11.697 0 0 1 1.692 6.078c0 3.245-1.316 6.184-3.442 8.31a11.716 11.716 0 0 1-8.31 3.442 11.716 11.716 0 0 1-8.31-3.442 11.716 11.716 0 0 1-3.443-8.31c0-3.245 1.315-6.183 3.442-8.31a11.716 11.716 0 0 1 8.31-3.442c2.233 0 4.32.622 6.098 1.703l1.364-1.356a13.565 13.565 0 0 0-7.462-2.223c-3.763 0-7.17 1.526-9.636 3.992a13.584 13.584 0 0 0-3.991 9.636c0 3.763 1.525 7.17 3.991 9.636a13.584 13.584 0 0 0 9.636 3.992c3.764 0 7.17-1.525 9.637-3.992a13.584 13.584 0 0 0 3.991-9.636c0-2.742-.81-5.295-2.204-7.433l-1.363 1.355Z"/><path fill-rule="evenodd" clip-rule="evenodd" d="M18.308 9.71a9.863 9.863 0 0 0-4.743-1.207 9.878 9.878 0 0 0-7.007 2.902 9.878 9.878 0 0 0-2.903 7.007 9.878 9.878 0 0 0 2.903 7.007 9.878 9.878 0 0 0 7.007 2.902 9.878 9.878 0 0 0 7.006-2.902 9.878 9.878 0 0 0 2.902-7.007 9.864 9.864 0 0 0-1.2-4.732l-1.4 1.392a8.006 8.006 0 0 1 .725 3.34 8.006 8.006 0 0 1-2.353 5.68 8.008 8.008 0 0 1-5.68 2.354c-2.22 0-4.228-.9-5.681-2.354a8.008 8.008 0 0 1-2.353-5.68c0-2.219.899-4.227 2.353-5.68a8.008 8.008 0 0 1 5.68-2.354c1.193 0 2.325.26 3.342.726l1.402-1.394Z"/><path fill-rule="evenodd" clip-rule="evenodd" d="M13.566 14.099a4.1 4.1 0 0 1 .319.01l1.594-1.585a6.184 6.184 0 0 0-1.913-.301 6.17 6.17 0 0 0-4.377 1.813 6.17 6.17 0 0 0-1.812 4.376c0 1.708.693 3.256 1.813 4.376a6.169 6.169 0 0 0 4.376 1.812 6.17 6.17 0 0 0 4.376-1.812 6.17 6.17 0 0 0 1.812-4.376 6.18 6.18 0 0 0-.305-1.924l-1.584 1.576a4.3 4.3 0 0 1-1.25 3.398 4.3 4.3 0 0 1-3.05 1.263 4.3 4.3 0 0 1-3.05-1.263 4.3 4.3 0 0 1-1.263-3.05 4.3 4.3 0 0 1 1.264-3.05 4.396 4.396 0 0 1 3.05-1.263Z"/><path fill-rule="evenodd" clip-rule="evenodd" d="M31.663 3.897a.933.933 0 0 0-.578-.271l-2.212-.362L28.377.84a.935.935 0 0 0-1.58-.505L24.03 3.088a.933.933 0 0 0-.275.71l.014 3.12-10.946 10.885a.935.935 0 0 0 1.319 1.326L25.091 8.24l3.077.004a.936.936 0 0 0 .745-.271l2.75-2.75a.937.937 0 0 0 0-1.326Z"/></symbol><symbol id="megaphone" viewBox="0 0 32 26" xmlns="http://www.w3.org/2000/svg"><path fill-rule="evenodd" clip-rule="evenodd" d="M1.046 9.668a3.551 3.551 0 0 0 0 5.033 3.552 3.552 0 0 0 2.516 1.046h.126V8.622h-.126c-.98 0-1.871.4-2.516 1.046ZM13.5 6.872h-7a.938.938 0 0 0-.938.938v8.75c0 .517.42.937.938.937h7V6.872Zm18.498-5.499a.935.935 0 0 0-1.521-.729c-1.374 1.11-2.723 2.12-4.064 2.978-1.332.85-2.668 1.563-4.033 2.09a17.26 17.26 0 0 1-3.939.989c-1.02.136-2.045.194-3.066.193v10.58a23.548 23.548 0 0 1 3.075.174c1.326.169 2.643.473 3.93.97 1.365.527 2.701 1.24 4.033 2.09 1.324.847 2.655 1.841 4.01 2.935A.937.937 0 0 0 32 22.957V1.373h-.001ZM14.096 19.372H7.369l1.088 4.06c.2.748.687 1.345 1.31 1.705.625.36 1.385.484 2.133.283l.845-.226a2.803 2.803 0 0 0 1.705-1.31l-.002-.001.002-.003a2.8 2.8 0 0 0 .283-2.129l-.637-2.379Z"/></symbol></defs></svg>