<svg>
	<defs>
		<symbol viewBox="0 0 14 11"
				xmlns="http://www.w3.org/2000/svg"
				id="board">
			<path
				  d="M0.666626 4.78204H4.58819V0.166656H0.666626V4.78204ZM0.666626 10.1667H4.58819V5.55127H0.666626V10.1667ZM5.37251 10.1667H9.29408V5.55127H5.37251V10.1667ZM10.0784 10.1667H14V5.55127H10.0784V10.1667ZM5.37251 4.78204H9.29408V0.166656H5.37251V4.78204ZM10.0784 0.166656V4.78204H14V0.166656H10.0784Z" />
		</symbol>

		<symbol viewBox="0 0 17 10"
				id="changelog"
				xmlns="http://www.w3.org/2000/svg">
			<path
				  d="M12.4999 1.16666L11.5566 0.223328L7.32994 4.45333L8.27328 5.39666L12.4999 1.16666ZM15.3299 0.223328L8.26994 7.27999L5.48994 4.49999L4.54661 5.44333L8.26994 9.16666L16.2699 1.16666L15.3299 0.223328ZM0.776611 5.44333L4.49994 9.16666L5.44328 8.22333L1.71994 4.49999L0.776611 5.44333Z" />
		</symbol>

		<symbol viewBox="0 0 13 13"
				xmlns="http://www.w3.org/2000/svg"
				id="login">
			<path
				  d="M5.22333 8.89L6.16667 9.83333L9.5 6.5L6.16667 3.16667L5.22333 4.11L6.94667 5.83333H0.5V7.16667H6.94667L5.22333 8.89ZM11.1667 0.5H1.83333C1.09667 0.5 0.5 1.09667 0.5 1.83333V4.5H1.83333V1.83333H11.1667V11.1667H1.83333V8.5H0.5V11.1667C0.5 11.9033 1.09667 12.5 1.83333 12.5H11.1667C11.9033 12.5 12.5 11.9033 12.5 11.1667V1.83333C12.5 1.09667 11.9033 0.5 11.1667 0.5Z" />
		</symbol>
		<symbol id="etc"
				viewBox="0 0 3 17"
				xmlns="http://www.w3.org/2000/svg">
			<circle cx="1.5"
					cy="1.5"
					r="1.5" />
			<circle cx="1.5"
					cy="8.5"
					r="1.5" />
			<circle cx="1.5"
					cy="15.5"
					r="1.5" />
		</symbol>
	</defs>
</svg>