<svg width="17" height="17" viewBox="0 0 17 17" fill="none" xmlns="http://www.w3.org/2000/svg">
<g id="game 1">
<path id="Vector" d="M9 3.988V1H8V3.988C4.436 4.093 0 5.27 0 6.475V13.516C0 14.343 0.673 15.016 1.5 15.016H3.29L5.286 11.085C5.853 11.189 6.999 11.359 8.459 11.359C9.938 11.359 11.153 11.185 11.747 11.082L13.655 15.016H15.5C16.327 15.016 17 14.343 17 13.516V6.475C17 5.27 12.563 4.092 9 3.988ZM16 13.516C16 13.791 15.775 14.016 15.5 14.016H14.282L12.306 9.946L11.92 10.031C11.905 10.034 10.405 10.36 8.458 10.36C6.517 10.36 5.143 10.037 5.129 10.033L4.745 9.94L2.677 14.015H1.5C1.225 14.015 1 13.79 1 13.515V6.6C1.502 6.163 4.38 5.082 8 4.989V5H9V4.987C12.619 5.081 15.498 6.162 16 6.599V13.516ZM5 7.02H5.998V8.02H5V9.04H4V8.02H3V7.02H4V6H5V7.02ZM12.5 9.02C13.327 9.02 14 8.347 14 7.52C14 6.693 13.327 6.02 12.5 6.02C11.673 6.02 11 6.692 11 7.52C11 8.348 11.673 9.02 12.5 9.02ZM12.5 7.02C12.775 7.02 13 7.245 13 7.52C13 7.795 12.775 8.02 12.5 8.02C12.225 8.02 12 7.795 12 7.52C12 7.245 12.225 7.02 12.5 7.02Z" fill="white"/>
</g>
</svg>
