<svg width="16" height="16" viewBox="0 0 16 16" fill="none" xmlns="http://www.w3.org/2000/svg">
<path d="M10.536 9.01312L10.5246 9.00371C10.5097 8.99335 10.4994 8.98112 10.4834 8.97171L10.48 8.97547L8.57143 7.76896V2.39798C9.87429 2.60314 10.8571 3.49344 10.8571 4.55879L11.4274 4.61526L12 4.55879C12 2.97771 10.504 1.67708 8.57143 1.45686V0H7.42857V1.45686C5.496 1.67708 4 2.97771 4 4.55879C4 5.44533 4.48114 6.28857 5.31543 6.88618L5.30971 6.89089L5.35543 6.92006L7.42857 8.23199V13.6011C6.12571 13.3959 5.14286 12.5056 5.14286 11.4403H4C4 13.0214 5.496 14.322 7.42857 14.5422V16H8.57143V14.5422C10.504 14.322 12 13.0214 12 11.4403C12 10.4935 11.464 9.61543 10.536 9.01312ZM6.08229 6.19352C5.48571 5.77378 5.14286 5.17993 5.14286 4.55879C5.14286 3.49344 6.12571 2.60314 7.42857 2.39798V7.04523L6.08229 6.19352ZM8.57143 13.6011V8.95571L9.83314 9.75472C10.4811 10.1754 10.8571 10.7862 10.8571 11.4403C10.8571 12.5056 9.87429 13.3959 8.57143 13.6011Z" fill="white"/>
</svg>
