<svg width="16" height="16" viewBox="0 0 16 16" fill="none" xmlns="http://www.w3.org/2000/svg">
<path d="M1.88281 0V15.9078L3.79152 13.5727L5.20611 15.3421L6.61881 13.5774L8.02964 15.3421L9.4414 13.5774L10.8532 15.3421L12.264 13.5774L14.1181 15.8927V0H1.88281V0ZM13.1769 13.2104L12.264 12.0706L10.8532 13.8353L9.4414 12.0706L8.02964 13.8353L6.61881 12.0706L5.20611 13.8353L3.79905 12.0753L2.82399 13.2687V0.941176H13.1769V13.2104ZM10.3506 3.76471H4.70352V2.82353H10.3506V3.76471ZM8.46822 7.52941H4.70352V6.58824H8.46822V7.52941ZM11.2739 5.64706H4.68564V4.70588H11.2739V5.64706ZM4.70634 9.41177H11.2946V10.3529H4.70634V9.41177Z" fill="white"/>
</svg>
