<svg width="16" height="16" viewBox="0 0 16 16" fill="none" xmlns="http://www.w3.org/2000/svg">
<path d="M8.42603 0.94873L4.69238 3.6612V15.0871L8.44391 12.4574L12.2472 15.0786V3.65744L8.42603 0.94873ZM11.307 13.2866L8.44109 11.3101L5.6345 13.2781V4.14026L8.4345 2.10638L11.3079 4.14402V13.2866H11.307ZM6.82697 5.64802C6.82697 6.55626 7.56579 7.29508 8.47403 7.29508C9.38226 7.29508 10.1211 6.55626 10.1211 5.64802C10.1211 4.73979 9.38226 4.00097 8.47403 4.00097C7.56579 4.00097 6.82697 4.73979 6.82697 5.64802ZM8.47403 4.94214C8.86274 4.94214 9.17991 5.25932 9.17991 5.64802C9.17991 6.03673 8.86274 6.35391 8.47403 6.35391C8.08532 6.35391 7.76815 6.03673 7.76815 5.64802C7.76815 5.25932 8.08532 4.94214 8.47403 4.94214Z" fill="white"/>
</svg>
